<svg width="26" height="26" viewBox="0 0 26 26" fill="none" xmlns="http://www.w3.org/2000/svg">
<g clip-path="url(#clip0_73_406)">
<path d="M21.36 6.16666V10.9167M21.36 10.9167H16.8M21.36 10.9167L17.8336 7.46499C17.0168 6.61372 16.0063 5.99186 14.8964 5.65743C13.7864 5.32301 12.6133 5.28692 11.4863 5.55253C10.3594 5.81814 9.31538 6.37679 8.45177 7.17636C7.58816 7.97593 6.93306 8.99036 6.54761 10.125M4.64001 18.8333V14.0833M4.64001 14.0833H9.20001M4.64001 14.0833L8.16641 17.535C8.98322 18.3863 9.99374 19.0081 11.1037 19.3425C12.2136 19.677 13.3868 19.7131 14.5137 19.4475C15.6407 19.1818 16.6846 18.6232 17.5483 17.8236C18.4119 17.024 19.067 16.0096 19.4524 14.875" stroke="white" stroke-width="2" stroke-linecap="round" stroke-linejoin="round"/>
</g>
<circle cx="13" cy="13" r="12" stroke="white" stroke-width="2"/>
<defs>
<clipPath id="clip0_73_406">
<rect x="3.88" y="3" width="18.24" height="19" rx="9.12" fill="white"/>
</clipPath>
</defs>
</svg>
